<svg width="24" height="24" viewBox="0 0 24 24" fill="none" xmlns="http://www.w3.org/2000/svg">
<path fill-rule="evenodd" clip-rule="evenodd" d="M8 2C8 3.06252 8.82856 3.93153 9.87481 3.99615L10.8761 7H7C5.89543 7 5 7.89543 5 9V16C5 17.1046 5.89543 18 7 18H9V19.9325C9 20.3564 9.49443 20.588 9.82009 20.3166L12.6 18H18C19.1046 18 20 17.1046 20 16V9C20 7.89543 19.1046 7 18 7H12.4572L11.2978 3.52178C11.7275 3.15494 12 2.60929 12 2C12 0.895431 11.1046 0 10 0C8.89543 0 8 0.895431 8 2ZM10.4745 1.84184L9.52553 2.15815C9.50897 2.10845 9.5 2.05527 9.5 2C9.5 1.72386 9.72386 1.5 10 1.5C10.2209 1.5 10.4083 1.64321 10.4745 1.84184ZM8.46967 12.4697L9.46967 11.4697C9.76256 11.1768 10.2374 11.1768 10.5303 11.4697L11.5303 12.4697C11.8232 12.7626 11.8232 13.2374 11.5303 13.5303C11.2374 13.8232 10.7626 13.8232 10.4697 13.5303L10 13.0607L9.53033 13.5303C9.23744 13.8232 8.76256 13.8232 8.46967 13.5303C8.17678 13.2374 8.17678 12.7626 8.46967 12.4697ZM15.4697 11.4697C15.7626 11.1768 16.2374 11.1768 16.5303 11.4697L17.5303 12.4697C17.8232 12.7626 17.8232 13.2374 17.5303 13.5303C17.2374 13.8232 16.7626 13.8232 16.4697 13.5303L16 13.0607L15.5303 13.5303C15.2374 13.8232 14.7626 13.8232 14.4697 13.5303C14.1768 13.2374 14.1768 12.7626 14.4697 12.4697L15.4697 11.4697Z"/>
</svg>
