<svg width="15" height="21" viewBox="0 0 15 21" fill="none" xmlns="http://www.w3.org/2000/svg">
<path fill-rule="evenodd" clip-rule="evenodd" d="M3 2C3 3.06252 3.82856 3.93153 4.87481 3.99615L5.87609 7H2C0.895431 7 0 7.89543 0 9V16C0 17.1046 0.89543 18 2 18H4V19.9325C4 20.3564 4.49443 20.588 4.82009 20.3166L7.6 18H13C14.1046 18 15 17.1046 15 16V9C15 7.89543 14.1046 7 13 7H7.45723L6.29782 3.52178C6.72755 3.15494 7 2.60929 7 2C7 0.895431 6.10457 0 5 0C3.89543 0 3 0.895431 3 2ZM5.47447 1.84184L4.52553 2.15815C4.50897 2.10845 4.5 2.05527 4.5 2C4.5 1.72386 4.72386 1.5 5 1.5C5.22087 1.5 5.40829 1.64321 5.47447 1.84184ZM3.46967 12.4697L4.46967 11.4697C4.76256 11.1768 5.23744 11.1768 5.53033 11.4697L6.53033 12.4697C6.82322 12.7626 6.82322 13.2374 6.53033 13.5303C6.23744 13.8232 5.76256 13.8232 5.46967 13.5303L5 13.0607L4.53033 13.5303C4.23744 13.8232 3.76256 13.8232 3.46967 13.5303C3.17678 13.2374 3.17678 12.7626 3.46967 12.4697ZM10.4697 11.4697C10.7626 11.1768 11.2374 11.1768 11.5303 11.4697L12.5303 12.4697C12.8232 12.7626 12.8232 13.2374 12.5303 13.5303C12.2374 13.8232 11.7626 13.8232 11.4697 13.5303L11 13.0607L10.5303 13.5303C10.2374 13.8232 9.76256 13.8232 9.46967 13.5303C9.17678 13.2374 9.17678 12.7626 9.46967 12.4697L10.4697 11.4697Z"/>
</svg>