<?xml version="1.0" encoding="utf-8"?>
<!-- Generator: Adobe Illustrator 16.0.0, SVG Export Plug-In . SVG Version: 6.00 Build 0)  -->
<!DOCTYPE svg PUBLIC "-//W3C//DTD SVG 1.1//EN" "http://www.w3.org/Graphics/SVG/1.1/DTD/svg11.dtd">
<svg version="1.1" id="Layer_1" xmlns="http://www.w3.org/2000/svg" xmlns:xlink="http://www.w3.org/1999/xlink" x="0px" y="0px"
	 width="1000px" height="357.035px" viewBox="0 0 1000 357.035" enable-background="new 0 0 1000 357.035" xml:space="preserve">
<text transform="matrix(1 0 0 1 563.9336 -323.0781)" fill="#231F20" font-family="'Montserrat-Regular'" font-size="64.5">mrbot.ai</text>
<g>
	
		<path fill="#D3D3D3" stroke="#585858" stroke-width="2" stroke-linecap="round" stroke-linejoin="round" stroke-miterlimit="10" d="
		M421.286-332.601c0,5.07-4.11,9.18-9.18,9.18l-6.37,2.79l1.95-3.92c-2.84-1.56-4.76-4.58-4.76-8.05c0-5.07,4.11-9.17,9.18-9.17
		C417.176-341.771,421.286-337.671,421.286-332.601z"/>
	<g>
		<circle fill="#585858" cx="409.072" cy="-332.617" r="1.602"/>
		<circle fill="#585858" cx="415.137" cy="-332.576" r="1.602"/>
	</g>
	<g>
		<circle fill="#585858" cx="412.104" cy="-347.104" r="1.333"/>
		
			<line fill="#D3D3D3" stroke="#585858" stroke-width="1.2143" stroke-linecap="round" stroke-linejoin="round" stroke-miterlimit="10" x1="412.104" y1="-343.681" x2="412.104" y2="-346.002"/>
		<rect x="409.01" y="-344.072" fill="#585858" width="6.189" height="2.688"/>
	</g>
	<path fill="#585858" d="M401.253-330.423c0,0.744,0.602,1.345,1.346,1.345l0,0c0.741,0,1.344-0.602,1.344-1.345v-4.388
		c0-0.744-0.603-1.345-1.344-1.345l0,0c-0.744,0-1.346,0.602-1.346,1.345V-330.423z"/>
	<path fill="#585858" d="M419.941-330.423c0,0.744,0.602,1.345,1.346,1.345l0,0c0.741,0,1.344-0.602,1.344-1.345v-4.388
		c0-0.744-0.603-1.345-1.344-1.345l0,0c-0.744,0-1.346,0.602-1.346,1.345V-330.423z"/>
</g>
<g>
	<path fill="#FFFFFF" d="M-1216.344-307.081c0.573,13.742,1.024,27.483,1.513,41.225l1.353,41.225l1.204,41.225l1.087,41.225
		c0.664,27.483,1.343,54.966,1.891,82.45l1.589,82.45l1.315,82.45l1.047,82.45l0.815,82.45l0.588,82.45l0.37,82.449
		c0.148,27.483,0.109,54.967,0.173,82.45l0.052,41.225l-0.06,41.226c-0.056,27.482-0.034,54.966-0.189,82.449l-0.39,82.45
		l-0.606,82.45l-0.838,82.449l-1.084,82.45l-9.83-9.83l50.227,0.783l50.227,0.894l50.228,0.993l50.227,1.109l50.227,1.242
		l50.227,1.392l50.227,1.576l25.113,0.889c8.372,0.282,16.743,0.611,25.114,0.952c-8.371,0.341-16.742,0.67-25.114,0.952
		l-25.113,0.889l-50.227,1.576l-50.227,1.392l-50.227,1.242l-50.227,1.109l-50.228,0.993l-50.227,0.894l-50.227,0.783l-9.699,0.151
		l-0.131-9.981l-1.084-82.45l-0.838-82.449l-0.606-82.45l-0.39-82.45c-0.156-27.483-0.134-54.967-0.189-82.449l-0.06-41.226
		l0.052-41.225c0.064-27.483,0.024-54.967,0.173-82.45l0.37-82.449l0.588-82.45l0.815-82.45l1.047-82.45l1.315-82.45l1.589-82.45
		c0.548-27.483,1.227-54.967,1.891-82.45l1.087-41.225l1.204-41.225l1.353-41.225
		C-1217.368-279.598-1216.917-293.339-1216.344-307.081z"/>
</g>
<g>
	<g>
		<g>
			<g>
				<path fill="#FFFFFF" d="M460.343,176.604v56.321h-19.565v-50.875c0-13.783-8.168-22.123-21.439-22.123
					c-15.484,0.512-24.842,12.424-24.842,28.243v44.755h-19.569v-50.875c0-13.783-7.997-22.123-21.272-22.123
					c-15.652,0.512-25.18,12.424-25.18,28.243v44.755h-19.395v-90.522h19.395v17.524c6.293-12.759,17.864-18.203,32.84-18.203
					c16.162,0,27.225,7.994,31.479,21.777c5.785-15.143,17.863-21.777,34.367-21.777
					C447.921,141.725,460.343,154.993,460.343,176.604z"/>
				<path fill="#FFFFFF" d="M501.571,160.44c6.129-12.253,17.018-18.715,31.312-18.715v18.715
					c-18.208-1.021-29.778,9.696-31.312,25.18v47.306h-19.562v-90.522h19.562V160.44z"/>
				<path fill="#FFFFFF" d="M638.869,188.003c0,27.051-17.012,45.602-42.878,45.602c-14.459,0-25.354-5.787-31.985-16.334v15.655
					h-19.564V106.67h19.564v51.387c6.631-10.549,17.526-16.333,31.65-16.333C621.345,141.725,638.869,160.44,638.869,188.003z
					 M619.138,187.324c0-16.846-11.402-29.267-27.566-29.267c-16.162,0-27.565,12.252-27.565,29.267
					c0,17.525,11.403,29.604,27.565,29.604C607.735,216.929,619.138,204.679,619.138,187.324z"/>
				<path fill="#FFFFFF" d="M743.178,187.662c0,27.222-19.231,45.942-47.138,45.942c-28.073,0-47.304-18.721-47.304-45.942
					c0-27.392,19.23-45.938,47.304-45.938C723.946,141.725,743.178,160.27,743.178,187.662z M668.307,187.833
					c0,17.527,11.397,29.438,27.733,29.438c16.163,0,27.565-11.91,27.565-29.438c0-17.354-11.402-29.263-27.565-29.263
					C679.704,158.57,668.307,170.479,668.307,187.833z"/>
				<path fill="#FFFFFF" d="M809.334,227.139c-7.146,4.255-14.639,6.636-22.292,6.636c-13.615,0-25.353-7.827-25.353-26.375V160.44
					h-12.768v-14.631h12.768v-24.845h19.396v24.845h26.711v14.631h-26.711v43.389c0,9.356,3.57,12.251,9.698,12.251
					c4.085,0,8.336-1.366,13.61-3.915L809.334,227.139z"/>
				<path fill="#FFFFFF" d="M842.428,223.058c0,6.629-4.593,11.397-10.723,11.397c-6.128,0-10.715-4.769-10.715-11.397
					c0-6.467,4.587-11.063,10.715-11.063C837.835,211.994,842.428,216.591,842.428,223.058z"/>
				<path fill="#FFFFFF" d="M916.219,221.862c-6.464,7.998-16.845,11.912-29.945,11.912c-19.564,0-31.817-12.083-31.817-28.076
					c0-16.502,12.421-27.055,34.197-27.225h27.397v-2.719c0-11.403-7.312-18.208-21.609-18.208c-8.676,0-17.692,3.064-26.711,9.188
					l-8-13.61c12.593-7.49,21.777-11.4,38.963-11.4c23.314,0,36.415,11.911,36.59,31.815l0.167,59.386h-19.231V221.862z
					 M916.051,201.101v-8.333h-24.503c-12.76,0-18.717,3.406-18.717,12.083c0,8.166,6.638,13.445,17.533,13.445
					C904.313,218.295,915.029,210.975,916.051,201.101z"/>
				<path fill="#FFFFFF" d="M977.529,116.539c0,6.808-4.939,11.742-11.396,11.742c-6.47,0-11.402-4.934-11.402-11.742
					c0-6.972,4.933-11.912,11.402-11.912C972.59,104.627,977.529,109.566,977.529,116.539z M956.434,232.926v-90.522h19.392v90.522
					H956.434z"/>
			</g>
		</g>
		<g>
			<g>
				<g>
					<path fill="#FFFFFF" d="M69.694,321.94c-2.832,0-5.605-1.132-7.635-3.266c-3.056-3.207-3.775-7.983-1.807-11.956l16.25-32.672
						c-29.196-19.835-46.951-52.978-46.951-88.73c0-59.08,48.101-107.133,107.232-107.133s107.232,48.054,107.232,107.133
						c0,58.377-46.876,106.006-104.974,107.212l-65.125,28.526C72.552,321.655,71.12,321.94,69.694,321.94z M136.784,99.249
						c-47.512,0-86.165,38.608-86.165,86.067c0,31.47,17.12,60.431,44.677,75.562c4.955,2.724,6.879,8.861,4.362,13.922
						l-7.616,15.316l40.515-17.752c1.335-0.58,2.773-0.881,4.227-0.881c47.515,0,86.168-38.654,86.168-86.167
						C222.952,137.857,184.299,99.249,136.784,99.249z"/>
				</g>
				<g>
					<g>
						<path fill="#FFFFFF" d="M87.951,185.146c0-9.309,7.562-16.879,16.875-16.879c9.318,0,16.878,7.57,16.878,16.879
							c0,9.308-7.561,16.878-16.878,16.878C95.513,202.024,87.951,194.454,87.951,185.146z"/>
					</g>
					<g>
						<path fill="#FFFFFF" d="M151.847,185.575c0-9.313,7.56-16.886,16.875-16.886c9.312,0,16.872,7.573,16.872,16.886
							c0,9.314-7.561,16.874-16.872,16.874C159.407,202.449,151.847,194.89,151.847,185.575z"/>
					</g>
				</g>
				<g>
					<path fill="#FFFFFF" d="M126.301,39.229c0-5.79,4.701-10.492,10.483-10.492s10.483,4.702,10.483,10.492
						c0,5.779-4.701,10.479-10.483,10.479S126.301,45.007,126.301,39.229z"/>
				</g>
				<g>
					<line fill="#FFFFFF" x1="136.78" y1="70.771" x2="136.78" y2="47.964"/>
					<path fill="#FFFFFF" d="M136.78,74.988c-2.336,0-4.221-1.89-4.221-4.217V47.964c0-2.331,1.884-4.216,4.221-4.216
						c2.324,0,4.208,1.886,4.208,4.216v22.808C140.989,73.099,139.104,74.988,136.78,74.988z"/>
				</g>
				<g>
					<path fill="#FFFFFF" d="M22.471,208.253c0,7.833,6.337,14.172,14.177,14.172l0,0c7.806,0,14.154-6.339,14.154-14.172v-46.22
						c0-7.836-6.349-14.172-14.154-14.172l0,0c-7.84,0-14.177,6.335-14.177,14.172V208.253z"/>
				</g>
				<g>
					<path fill="#FFFFFF" d="M113.665,70.92c-7.833,0-14.17,6.338-14.17,14.174l0,0c0,7.81,6.337,14.155,14.17,14.155h46.217
						c7.836,0,14.173-6.345,14.173-14.155l0,0c0-7.835-6.337-14.174-14.173-14.174H113.665z"/>
				</g>
				<g>
					<path fill="#FFFFFF" d="M222.952,208.253c0,7.833,6.336,14.172,14.173,14.172l0,0c7.812,0,14.158-6.339,14.158-14.172v-46.22
						c0-7.836-6.346-14.172-14.158-14.172l0,0c-7.837,0-14.173,6.335-14.173,14.172V208.253z"/>
				</g>
			</g>
		</g>
	</g>
</g>
</svg>
