<!DOCTYPE svg PUBLIC "-//W3C//DTD SVG 1.1//EN" "http://www.w3.org/Graphics/SVG/1.1/DTD/svg11.dtd">

<!-- Uploaded to: SVG Repo, www.svgrepo.com, Transformed by: SVG Repo Mixer Tools -->
<svg  viewBox="0 0 1024 1024" xmlns="http://www.w3.org/2000/svg" fill="#000000">

<g id="SVGRepo_bgCarrier" stroke-width="0"/>

<g id="SVGRepo_tracerCarrier" stroke-linecap="round" stroke-linejoin="round"/>

<g id="SVGRepo_iconCarrier">

<path d="M512 281.6c71.221 0 136.396 32.619 179.2 85.526V256h51.2v204.8H537.6v-51.2h121.511c-32.857-47.165-87.235-76.8-147.111-76.8-98.97 0-179.2 80.23-179.2 179.2 0 98.97 80.23 179.2 179.2 179.2v-.02c73.665 0 138.994-44.857 166.176-111.988l47.458 19.216C690.689 684.711 606.7 742.38 512 742.38v.02c-127.246 0-230.4-103.154-230.4-230.4 0-127.246 103.154-230.4 230.4-230.4z" fill="#FFFFFF" fill-rule="nonzero"/>

</g>

</svg>